<svg width="219" height="43" viewBox="0 0 219 43" fill="none" xmlns="http://www.w3.org/2000/svg">
<path d="M83.3459 19.9674C84.1692 20.3226 84.8231 20.8634 85.3075 21.59C85.808 22.3003 86.0582 23.1157 86.0582 24.0359C86.0582 25.3437 85.5981 26.4577 84.6778 27.3779C83.7576 28.2982 82.6435 28.7583 81.3358 28.7583H73.9495V11.8061H80.7788C82.0381 11.8061 83.1118 12.2581 83.9997 13.1623C84.8877 14.0502 85.3317 15.1158 85.3317 16.359C85.3317 17.9412 84.6697 19.144 83.3459 19.9674ZM80.7788 13.4044H75.6447V19.3135H80.7788C81.5699 19.3135 82.2399 19.031 82.7889 18.4659C83.3539 17.8847 83.6365 17.1824 83.6365 16.359C83.6365 15.5517 83.3539 14.8575 82.7889 14.2763C82.2399 13.6951 81.5699 13.4044 80.7788 13.4044ZM81.3358 27.16C82.1753 27.16 82.8857 26.8613 83.4669 26.2639C84.0643 25.6504 84.363 24.9078 84.363 24.0359C84.363 23.1802 84.0643 22.4456 83.4669 21.8321C82.8857 21.2186 82.1753 20.9119 81.3358 20.9119H75.6447V27.16H81.3358Z" fill="#7A7A7A"/>
<path d="M99.3807 28.7583L95.409 21.9774H90.6624V28.7583H88.9672V11.8061H95.7481C97.1527 11.8061 98.3474 12.3066 99.3322 13.3076C100.333 14.2924 100.834 15.4871 100.834 16.8918C100.834 18.0381 100.487 19.0633 99.7924 19.9674C99.1143 20.8554 98.2425 21.4527 97.1769 21.7595L101.318 28.7583H99.3807ZM90.6624 13.4044V20.3791H95.7481C96.6845 20.3791 97.4836 20.04 98.1456 19.3619C98.8075 18.6677 99.1385 17.8443 99.1385 16.8918C99.1385 15.9231 98.8075 15.0997 98.1456 14.4216C97.4836 13.7435 96.6845 13.4044 95.7481 13.4044H90.6624Z" fill="#7A7A7A"/>
<path d="M115.034 28.7583L113.46 24.5929H105.419L103.845 28.7583H102.053L108.568 11.8061H110.311L116.826 28.7583H115.034ZM106.025 22.9946H112.854L109.439 13.913L106.025 22.9946Z" fill="#7A7A7A"/>
<path d="M129.9 11.8061H131.596V28.7583H130.143L120.698 14.9544V28.7583H119.003V11.8061H120.456L129.9 25.6101V11.8061Z" fill="#7A7A7A"/>
<path d="M142.002 11.8061C144.31 11.8061 146.215 12.6295 147.717 14.2763C149.235 15.9069 149.993 17.9089 149.993 20.2822C149.993 22.6555 149.235 24.6656 147.717 26.3124C146.215 27.943 144.31 28.7583 142.002 28.7583H135.463V11.8061H142.002ZM142.002 27.16C143.858 27.16 145.376 26.498 146.554 25.1741C147.749 23.8503 148.347 22.2196 148.347 20.2822C148.347 18.3448 147.749 16.7142 146.554 15.3903C145.376 14.0664 143.858 13.4044 142.002 13.4044H137.158V27.16H142.002Z" fill="#7A7A7A"/>
<path d="M155.872 25.5616H162.338V28.7583H152.53V11.8061H155.872V25.5616Z" fill="#7A7A7A"/>
<path d="M177.46 26.5545C175.748 28.2498 173.666 29.0974 171.212 29.0974C168.758 29.0974 166.675 28.2498 164.964 26.5545C163.268 24.8432 162.421 22.7524 162.421 20.2822C162.421 17.812 163.268 15.7293 164.964 14.0341C166.675 12.3227 168.758 11.467 171.212 11.467C173.666 11.467 175.748 12.3227 177.46 14.0341C179.171 15.7293 180.027 17.812 180.027 20.2822C180.027 22.7524 179.171 24.8432 177.46 26.5545ZM167.313 24.2781C168.362 25.3114 169.662 25.828 171.212 25.828C172.762 25.828 174.061 25.3114 175.111 24.2781C176.16 23.2287 176.685 21.8967 176.685 20.2822C176.685 18.6677 176.16 17.3357 175.111 16.2863C174.061 15.2369 172.762 14.7122 171.212 14.7122C169.662 14.7122 168.362 15.2369 167.313 16.2863C166.263 17.3357 165.739 18.6677 165.739 20.2822C165.739 21.8967 166.263 23.2287 167.313 24.2781Z" fill="#7A7A7A"/>
<path d="M199.013 19.6526V20.9603C199.013 23.3821 198.238 25.3437 196.688 26.8452C195.138 28.3466 193.136 29.0974 190.682 29.0974C188.067 29.0974 185.895 28.2498 184.168 26.5545C182.456 24.8432 181.601 22.7605 181.601 20.3064C181.601 17.8362 182.448 15.7455 184.144 14.0341C185.855 12.3227 187.97 11.467 190.489 11.467C192.071 11.467 193.516 11.8303 194.824 12.5568C196.131 13.2672 197.148 14.2198 197.875 15.4145L195.017 17.0613C194.614 16.367 194 15.802 193.177 15.3661C192.37 14.9301 191.465 14.7122 190.464 14.7122C188.85 14.7122 187.518 15.245 186.469 16.3105C185.435 17.36 184.919 18.6919 184.919 20.3064C184.919 21.9048 185.443 23.2287 186.493 24.2781C187.558 25.3114 188.963 25.828 190.707 25.828C191.998 25.828 193.064 25.5455 193.903 24.9804C194.759 24.3992 195.34 23.6081 195.647 22.6071H190.513V19.6526H199.013Z" fill="#7A7A7A"/>
<path d="M215.654 26.5545C213.943 28.2498 211.86 29.0974 209.406 29.0974C206.952 29.0974 204.87 28.2498 203.158 26.5545C201.463 24.8432 200.615 22.7524 200.615 20.2822C200.615 17.812 201.463 15.7293 203.158 14.0341C204.87 12.3227 206.952 11.467 209.406 11.467C211.86 11.467 213.943 12.3227 215.654 14.0341C217.366 15.7293 218.221 17.812 218.221 20.2822C218.221 22.7524 217.366 24.8432 215.654 26.5545ZM205.507 24.2781C206.557 25.3114 207.856 25.828 209.406 25.828C210.956 25.828 212.256 25.3114 213.305 24.2781C214.355 23.2287 214.879 21.8967 214.879 20.2822C214.879 18.6677 214.355 17.3357 213.305 16.2863C212.256 15.2369 210.956 14.7122 209.406 14.7122C207.856 14.7122 206.557 15.2369 205.507 16.2863C204.458 17.3357 203.933 18.6677 203.933 20.2822C203.933 21.8967 204.458 23.2287 205.507 24.2781Z" fill="#7A7A7A"/>
<rect x="43.0386" width="30.2719" height="30.2719" transform="rotate(45 43.0386 0)" fill="url(#paint0_linear_304_5068)"/>
<mask id="mask0_304_5068" style="mask-type:alpha" maskUnits="userSpaceOnUse" x="23" y="1" width="40" height="41">
<rect x="43.0386" width="30.2719" height="30.2719" rx="4" transform="rotate(45 43.0386 0)" fill="#18253E"/>
</mask>
<g mask="url(#mask0_304_5068)">
<g filter="url(#filter0_f_304_5068)">
<path d="M41.7706 21.1903L30.7148 10.0375L34.6633 6.05432L48.8779 21.1903L34.6633 36.3262L30.7148 32.3431L41.7706 21.1903Z" fill="url(#paint1_linear_304_5068)"/>
</g>
</g>
<rect x="21.8483" width="30.2719" height="30.2719" transform="rotate(45 21.8483 0)" fill="url(#paint2_linear_304_5068)"/>
<defs>
<filter id="filter0_f_304_5068" x="26.7148" y="2.05432" width="26.1631" height="38.2719" filterUnits="userSpaceOnUse" color-interpolation-filters="sRGB">
<feFlood flood-opacity="0" result="BackgroundImageFix"/>
<feBlend mode="normal" in="SourceGraphic" in2="BackgroundImageFix" result="shape"/>
<feGaussianBlur stdDeviation="2" result="effect1_foregroundBlur_304_5068"/>
</filter>
<linearGradient id="paint0_linear_304_5068" x1="81.9515" y1="21.0224" x2="32.1838" y2="10.8548" gradientUnits="userSpaceOnUse">
<stop stop-color="#393939"/>
<stop offset="1" stop-color="#696868"/>
</linearGradient>
<linearGradient id="paint1_linear_304_5068" x1="27.5559" y1="21.1903" x2="48.8779" y2="21.1903" gradientUnits="userSpaceOnUse">
<stop stop-color="#343434" stop-opacity="0.64"/>
<stop offset="1" stop-color="#3B3B3B"/>
</linearGradient>
<linearGradient id="paint2_linear_304_5068" x1="60.7611" y1="21.0224" x2="10.9935" y2="10.8548" gradientUnits="userSpaceOnUse">
<stop stop-color="#393939"/>
<stop offset="1" stop-color="#696868"/>
</linearGradient>
</defs>
</svg>
