<svg width="713" height="713" viewBox="0 0 713 713" fill="none" xmlns="http://www.w3.org/2000/svg">
<path d="M0.125 207.938H148.562V712.625H0.125V207.938ZM73.8984 148.562H73.0672C28.7734 148.562 0.125 115.55 0.125 74.3141C0.125 32.1875 29.6641 0.125 74.7594 0.125C119.914 0.125 147.731 32.1875 148.562 74.3141C148.562 115.52 119.914 148.562 73.8984 148.562ZM712.625 712.625H564.188V442.498C564.188 377.245 527.82 332.714 469.425 332.714C424.864 332.714 400.758 362.758 389.061 391.792C384.786 402.183 386.062 430.92 386.062 445.438V712.625H237.625V207.938H386.062V285.6C407.467 252.469 440.984 207.938 526.722 207.938C632.944 207.938 712.595 274.734 712.595 423.884L712.625 712.625Z" fill="#F4F5F7"/>
</svg>
