<svg width="127" height="26" viewBox="0 0 127 26" fill="none" xmlns="http://www.w3.org/2000/svg">
<path fill-rule="evenodd" clip-rule="evenodd" d="M15.1916 14.0698C15.3531 14.2329 15.6404 14.4966 15.6864 14.7204C15.7016 14.7902 15.7001 14.8627 15.682 14.9319C15.6639 15.0011 15.6297 15.065 15.5822 15.1185C15.5354 15.1746 15.4765 15.2195 15.4099 15.2499C15.3434 15.2802 15.2708 15.2952 15.1977 15.2937L12.4016 15.292C12.1759 15.292 11.9649 15.318 11.7488 15.2356C11.5977 15.1755 11.4661 15.075 11.3685 14.945C11.1793 14.8036 11.0213 14.6241 10.8529 14.461L8.22951 11.9266C7.97082 11.6759 7.66092 11.4964 7.65918 11.0913C7.65918 10.9152 7.74859 10.7643 7.90659 10.675C8.20521 10.5076 8.5047 10.2994 8.7903 10.1112C8.99604 9.97499 9.20177 9.83968 9.41098 9.7087C9.56464 9.61329 9.7452 9.4988 9.91448 9.43115C9.97833 9.40443 10.0471 9.39133 10.1163 9.39267C10.1855 9.39402 10.2536 9.40978 10.3164 9.43895L10.9735 10.0019L15.1925 14.0707L15.1916 14.0698Z" fill="#EE3B68"/>
<path fill-rule="evenodd" clip-rule="evenodd" d="M91.4203 16.5891V16.2075H89.4306C89.0825 16.2075 88.3576 16.2301 88.1215 16.5458C88.0312 16.6672 88.0095 16.832 88.0095 16.9795C88.0095 17.6924 88.7248 17.885 89.3134 17.885C90.0582 17.885 91.0965 17.5944 91.3699 16.8051C91.3942 16.7357 91.4116 16.6629 91.4203 16.5891ZM91.4368 19.5764C90.7058 20.056 89.8065 20.2338 88.9132 20.2338C87.7118 20.2338 86.5225 19.7889 85.8549 18.7402C85.5402 18.238 85.3761 17.6562 85.3818 17.0636C85.3818 16.9665 85.3862 16.8693 85.394 16.7739L86.6249 14.6367C87.3472 14.1501 88.2726 13.9766 89.1467 13.9766H91.4151C91.3473 13.0425 90.6216 12.7502 89.7136 12.7502C88.849 12.7502 88.0338 13.1006 87.3281 13.5811C87.2889 13.608 87.2455 13.6279 87.1996 13.6401L89.0504 10.4282C89.382 10.3875 89.7362 10.3675 90.1303 10.3675C91.3482 10.3675 92.6217 10.6884 93.4169 11.6798C93.9273 12.3156 94.1322 13.0997 94.1339 13.9055L94.1513 19.7342C94.1523 19.7891 94.142 19.8436 94.1211 19.8943C94.1002 19.945 94.0691 19.9909 94.0297 20.0291C93.9918 20.0682 93.9463 20.0992 93.896 20.1201C93.8457 20.141 93.7917 20.1513 93.7372 20.1506H91.8508C91.7409 20.1503 91.6356 20.1066 91.558 20.0288C91.4804 19.9511 91.4368 19.8458 91.4368 19.736V19.5764ZM96.7555 6.7263C97.674 6.7263 98.3528 7.3855 98.3528 8.31012C98.3528 9.22519 97.6662 9.89393 96.7555 9.89393C95.8605 9.89393 95.1756 9.20698 95.1756 8.31012C95.1756 7.40458 95.8527 6.7263 96.7555 6.7263ZM0.498283 0.0258789H2.88553C3.15898 0.0258789 3.38295 0.279151 3.38295 0.589669V9.73173C3.38295 10.0414 3.15898 10.2938 2.88466 10.2938H0.497415C0.223967 10.2938 0 10.0414 0 9.73173V0.589669C0 0.278283 0.223967 0.0258789 0.498283 0.0258789ZM11.2478 0.267875C11.2912 0.193456 11.3537 0.131906 11.4287 0.0895339C11.5038 0.0471621 11.5887 0.0254925 11.6749 0.0267463L14.9997 0.0328179C15.0888 0.0320137 15.1764 0.0556981 15.253 0.101283C15.3295 0.146868 15.3921 0.212599 15.4338 0.291294C15.4781 0.369096 15.5002 0.457577 15.4976 0.547066C15.495 0.636554 15.4678 0.723605 15.419 0.798704C15.3669 0.881104 15.3305 0.92881 15.2654 1.00167C15.2237 1.04851 15.1794 1.08841 15.1351 1.13177C13.438 2.80753 11.7869 4.52926 10.0811 6.1946C9.78771 6.48084 9.4969 6.77141 9.20956 7.06458L8.67569 7.61189L9.04029 7.99093C9.13119 8.08539 9.18139 8.21172 9.18009 8.34276C9.17879 8.4738 9.1261 8.59911 9.03334 8.69176C8.9922 8.73314 8.94778 8.77114 8.90052 8.80538L8.88837 8.81406L7.01243 10.1064C6.93883 10.1585 6.85219 10.189 6.7622 10.1947C6.67221 10.2004 6.58242 10.1809 6.50286 10.1385C6.36049 10.0657 6.13479 9.83582 6.01673 9.72306C5.54873 9.27663 5.08772 8.82294 4.63386 8.36216C4.50712 8.23466 4.34392 8.08026 4.23454 7.93888C4.17537 7.86436 4.13918 7.77424 4.13039 7.67952C4.12161 7.5848 4.1406 7.48957 4.18506 7.40545C4.26058 7.25973 4.4533 7.06718 4.56789 6.94748C4.76147 6.74452 4.9594 6.54589 5.15819 6.349C5.45074 6.05583 5.74849 5.76786 6.0419 5.47642C6.63134 4.89529 7.21382 4.30548 7.79979 3.72087L10.4622 1.06325C10.6072 0.919269 10.7574 0.779622 10.9023 0.635639C10.9996 0.540229 11.1732 0.378031 11.2478 0.267875ZM105.021 16.5891V16.2075H103.031C102.684 16.2075 101.959 16.2301 101.723 16.5458C101.632 16.6672 101.611 16.832 101.611 16.9795C101.611 17.6924 102.326 17.885 102.915 17.885C103.659 17.885 104.698 17.5944 104.971 16.8051C104.995 16.7357 105.012 16.6629 105.021 16.5891ZM105.038 19.5764C104.307 20.056 103.408 20.2338 102.514 20.2338C101.313 20.2338 100.124 19.7889 99.4562 18.7402C99.1413 18.238 98.9771 17.6562 98.9831 17.0636C98.9831 16.4833 99.122 15.9213 99.4397 15.4321C100.157 14.3279 101.505 13.9766 102.747 13.9766H105.016C104.948 13.0425 104.223 12.7502 103.315 12.7502C102.45 12.7502 101.634 13.1006 100.929 13.5811C100.883 13.6135 100.83 13.6357 100.774 13.6462C100.719 13.6567 100.661 13.6552 100.606 13.6418C100.551 13.6302 100.498 13.6069 100.453 13.5734C100.407 13.5399 100.369 13.497 100.341 13.4475L99.5569 12.1118C99.5017 12.0173 99.486 11.9049 99.5131 11.7989C99.5402 11.6929 99.608 11.6018 99.7018 11.5454C101.098 10.7145 102.072 10.3684 103.732 10.3684C104.949 10.3684 106.223 10.6893 107.018 11.6798C107.528 12.3156 107.733 13.0997 107.735 13.9055L107.753 19.7342C107.754 19.7891 107.743 19.8436 107.722 19.8943C107.701 19.945 107.67 19.9909 107.631 20.0291C107.593 20.0682 107.548 20.0992 107.497 20.1201C107.447 20.141 107.393 20.1513 107.338 20.1506H105.451C105.341 20.1501 105.236 20.1062 105.159 20.0285C105.081 19.9508 105.038 19.8456 105.038 19.736V19.5764ZM62.9443 14.8752C62.9072 14.9659 62.8437 15.0434 62.7619 15.0975C62.6802 15.1517 62.584 15.18 62.486 15.1788H60.0163C59.9331 15.1798 59.8511 15.1595 59.7781 15.1197C59.7052 15.0799 59.6437 15.022 59.5996 14.9516C59.5532 14.8825 59.5252 14.8027 59.5184 14.7198C59.5115 14.6369 59.526 14.5537 59.5605 14.478L65.7639 0.398847C65.8017 0.309689 65.8653 0.233797 65.9464 0.180821C66.0276 0.127846 66.1227 0.100179 66.2196 0.10134H68.6494C68.8517 0.10134 69.0244 0.214098 69.1051 0.400582L72.3909 7.93194L69.277 8.91901C68.6399 7.4202 68.0027 5.91965 67.3638 4.41216C65.8871 7.89812 64.4201 11.3884 62.9443 14.8752Z" fill="white"/>
<path fill-rule="evenodd" clip-rule="evenodd" d="M72.6505 8.52623L75.2486 14.4798C75.2829 14.5557 75.2972 14.6389 75.2902 14.7218C75.2832 14.8047 75.2552 14.8844 75.2087 14.9534C75.1643 15.0235 75.1027 15.081 75.0298 15.1205C74.9568 15.16 74.875 15.1801 74.792 15.1789H72.2624C72.1644 15.18 72.0683 15.1517 71.9865 15.0975C71.9048 15.0434 71.8413 14.966 71.8041 14.8754C71.0453 13.0834 70.2884 11.2992 69.5297 9.51503L72.6505 8.52623ZM124.835 13.4407C124.179 13.0357 123.272 12.7174 122.501 12.7174C122.272 12.7174 121.838 12.7494 121.682 12.9507C121.633 13.0201 121.609 13.1038 121.614 13.1883C121.614 13.2386 121.623 13.2846 121.645 13.3297C121.754 13.5466 122.189 13.7096 122.401 13.7851C122.92 13.969 123.457 14.0991 123.977 14.2882C125.348 14.7843 126.321 15.5805 126.316 17.1652C126.309 19.3094 124.401 20.2175 122.501 20.2175C121.165 20.2175 119.658 19.7829 118.655 18.8739C118.587 18.8135 118.541 18.7324 118.525 18.6433C118.508 18.5541 118.522 18.462 118.563 18.3813L119.247 17.0117C119.275 16.9544 119.315 16.9044 119.366 16.866C119.417 16.8275 119.476 16.8017 119.539 16.7905C119.669 16.7645 119.793 16.7992 119.892 16.8877C120.563 17.487 121.691 17.8851 122.584 17.8851C122.935 17.8851 123.621 17.8331 123.621 17.3474C123.621 16.0888 118.959 16.781 118.97 13.3367C118.977 11.2437 120.786 10.3512 122.651 10.3512C123.779 10.3512 125.067 10.6738 125.991 11.3296C126.159 11.4484 126.213 11.6678 126.123 11.8517L125.422 13.2716C125.398 13.3236 125.362 13.3697 125.318 13.4066C125.274 13.4436 125.222 13.4706 125.166 13.4858C125.111 13.5027 125.053 13.5075 124.996 13.4997C124.938 13.4919 124.884 13.4718 124.835 13.4407ZM111.754 15.0298V19.7361C111.754 19.8459 111.711 19.9512 111.633 20.029C111.556 20.1067 111.45 20.1505 111.34 20.1507H109.424C109.314 20.1505 109.208 20.1067 109.131 20.029C109.053 19.9512 109.01 19.8459 109.01 19.7361V10.8508C109.01 10.6218 109.195 10.4362 109.424 10.4362H111.34C111.569 10.4362 111.754 10.6218 111.754 10.8508V11.3278C112.501 10.6496 113.496 10.3694 114.609 10.3694C116.946 10.3694 118.323 11.9012 118.323 14.2084V19.737C118.323 19.8466 118.28 19.9518 118.202 20.0295C118.125 20.1072 118.02 20.1511 117.91 20.1516H115.992C115.882 20.1511 115.777 20.1072 115.699 20.0295C115.622 19.9518 115.578 19.8466 115.578 19.737V14.7427C115.578 13.6411 114.969 12.9958 113.86 13.0019C112.632 13.0097 111.876 13.8458 111.754 15.0306V15.0298ZM98.1202 19.9868C98.1202 20.9756 97.8198 21.9279 97.0863 22.6149C96.4786 23.1848 95.6652 23.4745 94.838 23.4745C94.0844 23.4748 93.3502 23.2358 92.7415 22.7918C92.6662 22.7368 92.6119 22.6578 92.5874 22.5678C92.563 22.4778 92.5699 22.3821 92.607 22.2966L93.2407 20.8099C93.2641 20.7524 93.3006 20.7011 93.3473 20.6601C93.394 20.6192 93.4496 20.5897 93.5098 20.574C93.5691 20.5562 93.6317 20.5524 93.6927 20.5629C93.7537 20.5735 93.8115 20.598 93.8614 20.6347C94.1096 20.8125 94.4464 20.9591 94.7555 20.9591C95.2442 20.9591 95.3918 20.626 95.3918 20.1698V10.8508C95.3918 10.6218 95.5776 10.4362 95.805 10.4362H97.7061C97.9336 10.4362 98.1193 10.6218 98.1193 10.8508V19.9876L98.1202 19.9868ZM78.9528 12.0287H82.4859L80.6716 15.1789H76.0855C75.9535 15.1783 75.8271 15.1254 75.7339 15.032C75.6407 14.9386 75.5883 14.8121 75.5881 14.6802V0.598484C75.5881 0.324396 75.8112 0.0997474 76.0855 0.0997474H78.4554C78.7288 0.0997474 78.9528 0.324396 78.9528 0.598484V12.0278V12.0287ZM58.3452 4.46608C57.2531 3.80341 55.7826 3.23095 54.4874 3.23095C53.8728 3.23095 52.6965 3.35932 52.6965 4.1998C52.6965 4.38715 52.7347 4.56149 52.8294 4.72282C53.0811 5.14783 53.7009 5.41932 54.1419 5.58672C54.9024 5.87555 55.7053 6.07592 56.4788 6.33786C58.6334 7.06819 60.2724 8.18015 60.2654 10.6981C60.2637 11.4874 60.0658 12.2455 59.6465 12.916C58.5614 14.6507 56.3998 15.2596 54.4674 15.2596C52.2573 15.2596 50.0194 14.3922 48.3891 12.8952C48.3085 12.8224 48.2541 12.7251 48.2343 12.6183C48.2145 12.5116 48.2305 12.4013 48.2797 12.3045L49.3041 10.2523C49.3376 10.1827 49.3873 10.1221 49.4491 10.0756C49.5109 10.0292 49.5829 9.99813 49.6591 9.98515C49.735 9.96997 49.8134 9.97324 49.8877 9.99468C49.962 10.0161 50.0301 10.0551 50.0862 10.1083C51.2408 11.1682 52.9118 12.0287 54.5074 12.0287C55.293 12.0287 56.6394 11.8639 56.6394 10.8178C56.6394 10.6183 56.5986 10.4327 56.4944 10.2627C56.2383 9.84203 55.6316 9.57922 55.1906 9.41529C54.444 9.13773 53.6532 8.94691 52.8919 8.70231C51.8936 8.38138 50.8562 7.95637 50.1079 7.19309C49.3596 6.4298 49.0506 5.48003 49.0506 4.42184C49.0506 3.65769 49.2372 2.92303 49.6391 2.27077C50.6878 0.575065 52.7903 0 54.668 0C56.4588 0 58.3643 0.538636 59.8618 1.53091C60.0701 1.66882 60.1439 1.93423 60.0371 2.15975L59.0536 4.25184C59.0248 4.31564 58.9825 4.37243 58.9296 4.41827C58.8767 4.4641 58.8144 4.49788 58.7471 4.51726C58.6805 4.53852 58.6099 4.54495 58.5405 4.53611C58.4711 4.52727 58.4044 4.50337 58.3452 4.46608ZM39.4981 8.82894L43.6667 0.378173C43.7535 0.204699 43.9193 0.100615 44.1137 0.100615H46.9073C47.1816 0.100615 47.4055 0.325263 47.4055 0.599352V14.6802C47.4053 14.8123 47.3528 14.9389 47.2594 15.0323C47.166 15.1258 47.0394 15.1785 46.9073 15.1789H44.7162C44.5842 15.1785 44.4577 15.1259 44.3644 15.0326C44.271 14.9394 44.2184 14.813 44.2179 14.6811L44.2014 6.30056L40.7091 13.4312C40.6692 13.5157 40.6058 13.5869 40.5266 13.6364C40.4473 13.6859 40.3555 13.7116 40.262 13.7105H38.7168C38.6232 13.7117 38.5313 13.686 38.4519 13.6365C38.3725 13.587 38.309 13.5157 38.2689 13.4312L34.7809 6.30924V14.6793C34.781 14.7448 34.7682 14.8097 34.7432 14.8703C34.7183 14.9308 34.6816 14.9859 34.6353 15.0323C34.5891 15.0787 34.5341 15.1155 34.4736 15.1407C34.4131 15.1658 34.3482 15.1788 34.2826 15.1789H32.0542C31.9222 15.1785 31.7956 15.1257 31.7024 15.0323C31.6092 14.9388 31.5568 14.8122 31.5568 14.6802V0.598484C31.5568 0.324396 31.7799 0.0997474 32.0542 0.0997474H34.8651C35.0587 0.0997474 35.2245 0.203832 35.3113 0.377305L39.4981 8.82808V8.82894ZM19.8767 8.84716C19.8767 10.9115 21.0877 12.1492 23.1528 12.1492C25.2258 12.1492 26.3691 10.902 26.3691 8.84629V0.599352C26.3691 0.325263 26.5931 0.100615 26.8665 0.100615H29.2364C29.5099 0.100615 29.7338 0.325263 29.7338 0.599352V8.84716C29.7338 12.8891 27.1139 15.2804 23.1329 15.2804C19.1544 15.2804 16.512 12.8926 16.512 8.84716V0.599352C16.512 0.325263 16.7351 0.100615 17.0094 0.100615H19.3793C19.6527 0.100615 19.8767 0.325263 19.8767 0.599352V8.84716ZM91.7354 0.397255L91.9802 0.538636C92.3934 0.77803 92.5375 1.3132 92.2979 1.72606L78.701 25.1155C78.5857 25.3143 78.3964 25.4594 78.1743 25.519C77.9523 25.5787 77.7156 25.548 77.5161 25.4338L77.2713 25.2925C77.0719 25.1766 76.9265 24.9865 76.8669 24.7639C76.8074 24.5412 76.8385 24.304 76.9536 24.1042L90.5505 0.716446C90.6658 0.517673 90.8551 0.372601 91.0772 0.31295C91.2992 0.253298 91.5359 0.283921 91.7354 0.398122" fill="white"/>
</svg>
