<svg width="127" height="35" viewBox="0 0 127 35" fill="none" xmlns="http://www.w3.org/2000/svg">
<path d="M6.07028 27.5434C4.64839 27.5434 3.877 27.2959 3.76763 26.7951C3.70177 26.5141 3.67274 26.2258 3.68128 25.9373C3.72583 24.5904 3.91889 23.2525 4.25694 21.948C4.97652 18.92 5.44281 16.8303 5.67308 15.6963C5.85729 14.781 6.04726 13.693 6.24874 12.4265C6.46174 10.9125 6.57111 10.1238 6.57111 10.0375C6.25148 9.97007 5.92359 9.95067 5.59824 9.97993C4.82685 9.97993 4.32026 9.97993 4.08424 9.93963C3.34297 9.87458 2.6123 9.71995 1.90823 9.4791C0.95263 9.16824 0.376966 8.82284 0.18124 8.44866C0.0352388 8.04335 -0.0236097 7.6118 0.00854037 7.1822C-0.0126843 6.63918 0.0653486 6.09686 0.238806 5.58185C0.302129 5.42067 0.359696 5.34583 0.417263 5.34583C0.474829 5.34583 0.572692 5.41491 0.739634 5.56458C1.10371 5.86675 1.52172 6.09724 1.97156 6.24387C2.51317 6.43907 3.07514 6.57232 3.64674 6.64108C4.25687 6.70277 4.86988 6.73159 5.48311 6.72742C7.04753 6.72041 8.61022 6.62239 10.1633 6.43384C10.8278 6.34973 11.4968 6.30552 12.1666 6.30143C12.9687 6.29439 13.7688 6.38329 14.5498 6.56624C15.8738 6.83104 16.5608 7.57173 16.6107 8.7883V9.12219C16.6301 9.51063 16.5854 9.89962 16.4783 10.2735C16.4092 10.4289 16.3516 10.5095 16.2998 10.5095C16.1768 10.4615 16.0636 10.3913 15.966 10.3023C15.6799 10.0803 15.3534 9.91606 15.0046 9.81874C14.1527 9.57861 13.2703 9.46419 12.3853 9.4791C11.4592 9.50367 10.5349 9.57668 9.61637 9.69785V10.3484C9.61637 12.2672 9.00425 15.7749 7.78001 20.8715C7.39623 22.5141 7.16405 23.5982 7.08345 24.124C6.98467 24.7777 6.93081 25.4374 6.92227 26.0985C6.92227 26.5821 6.97983 26.8814 7.10072 26.9966C7.16449 27.0481 7.20576 27.1224 7.21585 27.2038C7.21585 27.4341 6.83592 27.5434 6.07028 27.5434Z" fill="white"/>
<path d="M13.2488 27.8658C13.1819 27.8743 13.1142 27.8743 13.0473 27.8658C12.5062 27.7967 12.2241 27.7104 12.2069 27.6125V27.5434C12.308 26.6154 12.4753 25.6959 12.7077 24.7918C12.984 23.5944 13.22 22.4891 13.4273 21.3896C13.6345 20.2901 13.8878 19.1675 14.1929 17.9356C14.3026 17.4343 14.4429 16.9402 14.6131 16.4561C14.6858 16.209 14.8325 15.99 15.0334 15.8287C15.3186 15.6803 15.6396 15.6145 15.9602 15.6387C16.074 15.6246 16.1896 15.6353 16.2989 15.67C16.4082 15.7048 16.5087 15.7629 16.5934 15.8402C16.742 16.1844 16.7975 16.5615 16.7546 16.9339C16.7252 17.8373 16.6329 18.7375 16.4783 19.628C16.4157 19.9205 16.3714 20.2166 16.3459 20.5146L16.5762 20.0886C17.3094 18.6449 18.2097 17.2924 19.2587 16.0589C19.5357 15.7121 19.8638 15.4093 20.2316 15.1609C20.6072 14.9574 21.031 14.8599 21.4578 14.8788C21.9136 14.8497 22.3654 14.9799 22.7358 15.2472C22.791 15.3037 22.8331 15.3717 22.859 15.4463C22.8848 15.521 22.8939 15.6004 22.8854 15.679C22.8209 16.271 22.6776 16.8518 22.4594 17.406C22.148 18.1829 21.9072 18.9864 21.7399 19.8065C21.7399 20.0598 21.8377 20.1864 22.045 20.1864C22.9793 20.0095 23.8854 19.7074 24.7391 19.2884C24.8197 19.2884 24.8657 19.3229 24.8715 19.3632C24.8772 19.4035 24.6642 19.5532 24.2382 19.7605C23.4669 20.1634 22.9085 20.434 22.5746 20.5837C21.9869 20.7996 21.3643 20.905 20.7382 20.8945C19.5408 20.8945 18.9421 20.6067 18.9421 20.0253C19.0652 19.0275 19.347 18.0558 19.7768 17.1469C19.9025 16.8597 20.012 16.5656 20.105 16.2662C19.7437 16.6139 19.4213 17 19.1436 17.4175C17.6489 19.3676 16.5178 21.5712 15.8048 23.9225C15.5551 24.8014 15.3628 25.6955 15.2291 26.5993C15.2 26.8919 15.1519 27.1823 15.0852 27.4686C14.9931 27.6931 14.5095 27.8313 13.6403 27.8831L13.2488 27.8658Z" fill="white"/>
<path d="M28.7514 27.3994C26.6906 27.3994 25.6601 26.5494 25.6601 24.8492C25.7179 23.1729 26.1653 21.5331 26.9669 20.0597C27.5413 18.8753 28.2968 17.7877 29.2062 16.836C29.769 16.2391 30.4493 15.7652 31.2042 15.4442C31.9592 15.1232 32.7725 14.962 33.5928 14.9708H34.5829C34.8256 14.9704 35.0681 14.9877 35.3083 15.0226C35.6906 15.0637 36.0752 15.0791 36.4596 15.0687H36.7244C37.5879 15.0687 38.0254 15.2356 38.0254 15.5638C37.8735 16.2488 37.6616 16.9192 37.3922 17.5671C35.9338 21.6888 35.2066 24.1719 35.2104 25.0162C35.2104 25.4191 35.3601 25.6206 35.6537 25.6206C35.7918 25.6206 35.9875 25.4422 36.2293 25.091C36.8798 24.1584 37.7145 22.7883 38.745 21.0614C39.2861 20.1173 39.5739 19.628 39.6142 19.5877C39.7499 19.515 39.9044 19.4849 40.0575 19.5013C40.3626 19.5013 40.5123 19.5358 40.5123 19.6049C40.3596 19.9907 40.1666 20.3592 39.9366 20.7044L38.8198 22.6962C38.4171 23.4295 37.9751 24.1406 37.4958 24.8262C37.0973 25.4666 36.6109 26.048 36.0509 26.5532C35.7217 26.8132 35.3187 26.9623 34.8995 26.9792C34.5887 26.9792 34.3239 27.0137 34.18 27.0137C33.635 27.0286 33.0933 26.9265 32.5911 26.7144C32.4034 26.6406 32.2329 26.5289 32.0903 26.3862C31.9943 26.2711 31.9253 26.2136 31.8831 26.2136L31.4398 26.5992C31.1115 26.9414 30.6952 27.1864 30.2367 27.3073C29.7458 27.3864 29.2483 27.4173 28.7514 27.3994ZM29.6955 26.133C30.1233 26.1036 30.5288 25.9313 30.8469 25.6436C31.22 25.3974 31.5489 25.0899 31.8197 24.7341C31.8554 24.6432 31.8805 24.5486 31.8946 24.452C32.2788 22.6264 32.8358 20.8415 33.5582 19.1214C33.855 18.2913 34.1931 17.4767 34.5714 16.6806C34.649 16.5571 34.7091 16.4234 34.7499 16.2833C34.7499 16.2833 34.6635 16.2143 34.4908 16.1394C34.34 16.0729 34.1778 16.0358 34.013 16.0301C33.8109 16.0252 33.6115 16.077 33.4373 16.1797C33.0724 16.4229 32.7346 16.7047 32.4299 17.0202C32.0864 17.3523 31.7689 17.7103 31.4801 18.0909C30.4669 19.5229 29.7057 21.1174 29.2292 22.8056C29.0649 23.4354 28.9798 24.0832 28.9759 24.7341C28.999 25.6667 29.2292 26.133 29.6955 26.133Z" fill="white"/>
<path d="M45.1061 27.3995C43.452 27.3995 42.4312 26.9869 42.0436 26.1618C41.6806 25.4618 41.4985 24.6821 41.5139 23.8937C41.5762 22.0825 42.1186 20.3203 43.0855 18.7875C44.1985 16.7842 45.2884 15.6329 46.3553 15.3335C47.1556 15.0664 47.9881 14.9076 48.8306 14.8615H49.0782C49.579 14.9018 49.8783 14.9191 49.9762 14.9191L50.431 12.3401C50.5806 11.6666 50.7764 10.947 51.0066 10.1871C51.1948 9.56149 51.4216 8.94819 51.6859 8.35074C52.2098 7.28001 52.6473 6.66405 53.0157 6.49711C53.4283 6.36474 53.8606 6.30437 54.2937 6.31865C55.0708 6.31865 55.5314 6.41651 55.681 6.60073C55.6309 6.78182 55.5469 6.95177 55.4335 7.10155C54.6254 8.48793 54.0425 9.9938 53.7065 11.5629C53.4877 12.507 53.2402 13.9232 52.9524 15.8171C52.5407 18.1987 52.2812 20.6041 52.1752 23.0187C52.1516 23.4386 52.2603 23.8554 52.4861 24.2103C52.532 24.2928 52.5975 24.3627 52.6768 24.4139C52.7561 24.4651 52.8468 24.496 52.9409 24.5039C53.3246 24.5039 53.9003 23.9052 54.6679 22.7078C54.8924 22.3624 55.3414 21.7407 56.0207 20.8427C56.7 19.9446 57.1087 19.4956 57.2584 19.4956C57.408 19.4956 57.5232 19.5301 57.5232 19.5877C57.5098 19.6975 57.4787 19.8045 57.4311 19.9043C57.3735 20.054 57.0857 20.6066 56.5618 21.5507C55.8374 22.8078 55.0277 24.0138 54.1382 25.1601C53.0407 26.6185 52.0582 27.3457 51.1909 27.3419C50.2314 27.3419 49.5195 26.6319 49.0551 25.2119L48.7615 25.6667C48.3553 26.3751 47.6979 26.9052 46.9194 27.1519C46.3295 27.3187 45.7191 27.4021 45.1061 27.3995ZM45.7969 25.8337C46.168 25.8033 46.5193 25.6539 46.7985 25.4077C47.6317 24.6094 48.3142 23.6675 48.8134 22.6272L49.1069 22.1149C49.2259 20.5798 49.4332 18.7376 49.7287 16.5885C49.7862 16.1587 49.815 15.8996 49.815 15.8114C49.815 15.725 49.815 15.6674 49.7575 15.6502C49.6872 15.5879 49.5979 15.5514 49.5042 15.5465C49.3899 15.5547 49.2794 15.5903 49.1818 15.6502C48.0305 16.2066 46.9367 17.4194 45.9005 19.2884C45.1102 20.6977 44.6755 22.2784 44.634 23.8937C44.6249 24.3064 44.6694 24.7186 44.7664 25.1198C44.798 25.2446 44.8566 25.3609 44.9382 25.4604C45.0198 25.5599 45.1223 25.6402 45.2385 25.6955C45.4143 25.7739 45.6044 25.8151 45.7969 25.8164V25.8337Z" fill="white"/>
<path d="M62.2954 27.3994H61.7657L61.2649 27.3419L60.6259 27.2497C60.298 27.193 59.9748 27.1122 59.6588 27.008C59.1852 26.8487 58.7635 26.5643 58.4384 26.1848C58.1406 25.9099 57.9388 25.5467 57.8627 25.1486C57.8627 24.8722 57.8627 24.7053 57.8627 24.6477C57.8627 23.6634 58.3405 22.2184 59.3019 20.3015C59.8388 19.1652 60.5114 18.0981 61.3052 17.1238C62.0962 16.0871 63.2384 15.3748 64.5174 15.1205C64.8967 15.0472 65.2825 15.0125 65.6688 15.0169C66.3043 14.9966 66.9392 15.0743 67.5512 15.2471C67.7586 15.293 67.9433 15.4104 68.0728 15.5788C68.2023 15.7473 68.2683 15.9559 68.2592 16.1682C68.2207 16.5242 68.06 16.8557 67.8045 17.1065C67.3092 17.6501 66.7253 18.1056 66.0775 18.4536C65.4074 18.8578 64.6849 19.1677 63.9302 19.3747L63.5848 19.4322C63.496 19.4526 63.4054 19.4642 63.3143 19.4668C63.2185 19.4611 63.1226 19.4748 63.0322 19.5071C62.745 19.9969 62.4893 20.5045 62.2666 21.0268C61.8817 21.7986 61.5528 22.597 61.2822 23.4158C61.1169 23.9336 61.0277 24.4727 61.0174 25.0162C60.9999 25.2317 61.0255 25.4486 61.0927 25.6542C61.1599 25.8598 61.2674 26.0499 61.4088 26.2135C61.5321 26.3401 61.6799 26.4402 61.8433 26.5075C62.0066 26.5748 62.182 26.608 62.3587 26.605C63.1027 26.4987 63.8045 26.1945 64.3908 25.7242C65.1348 25.2157 65.8288 24.6374 66.4632 23.9972C67.3804 23.1107 68.7236 21.614 70.4928 19.5071C71.103 19.5071 71.4081 19.5531 71.4081 19.651C70.7906 20.4794 70.1255 21.2713 69.4163 22.0227C68.242 23.3698 67.4188 24.287 66.9467 24.7744C66.423 25.3235 65.8613 25.8352 65.2658 26.3057C64.8524 26.6586 64.3911 26.9513 63.8957 27.1749C63.3804 27.3467 62.838 27.4228 62.2954 27.3994ZM63.2855 19.1099C63.4515 19.0856 63.6139 19.0412 63.7691 18.9775C64.3327 18.7748 64.8731 18.5123 65.3809 18.1945C65.8681 17.9083 66.3285 17.5788 66.7568 17.2102C67.1137 16.8935 67.2864 16.6345 67.2864 16.4157C67.2866 16.3336 67.2668 16.2526 67.2288 16.1797C67.1801 16.0702 67.0985 15.9787 66.9953 15.9178C66.8921 15.8569 66.7725 15.8297 66.6531 15.8401H66.4459C66.1477 15.8827 65.8615 15.9865 65.6054 16.1452C64.7128 16.8793 63.96 17.7686 63.3834 18.7702C63.3134 18.8613 63.2536 18.9598 63.2049 19.0638C63.2049 19.0638 63.2452 19.1099 63.2855 19.1099Z" fill="white"/>
<path d="M73.3079 27.4398C72.9902 27.4487 72.6742 27.3898 72.3811 27.2671C72.0435 27.1086 71.7639 26.8487 71.5812 26.5236C71.3986 26.1985 71.322 25.8245 71.3621 25.4538C71.437 23.7471 72.0792 22.1143 73.187 20.8139C73.5439 20.3649 74.0102 19.841 74.5858 19.2424L74.3671 18.3846C74.2355 17.7798 74.0604 17.1854 73.8432 16.6058C73.6885 16.2425 73.4766 15.9063 73.2158 15.6099C73.0958 15.4785 72.9915 15.3336 72.9049 15.1782C72.9049 15.0227 73.2445 14.9421 73.9238 14.9421C74.4152 14.9331 74.9008 15.05 75.3342 15.2818C76.0154 15.601 76.559 16.1548 76.8655 16.8418L77.1015 17.3024C77.5775 16.9847 78.0736 16.6981 78.5867 16.4446C79.9786 15.634 81.5434 15.1664 83.1517 15.0803C83.688 15.0425 84.226 15.1211 84.7291 15.3106C84.7981 15.3624 84.8327 15.4084 84.8327 15.443C84.8327 15.4775 84.493 15.7135 83.8137 15.8862C81.7313 16.523 79.8162 17.6142 78.2068 19.0812L77.7808 19.4496L78.0859 20.5549C78.5867 22.587 78.9724 23.957 79.2372 24.6766C79.2912 24.9248 79.3944 25.1597 79.5407 25.3674C79.6871 25.575 79.8736 25.7512 80.0892 25.8855C80.3311 25.9956 80.59 26.0638 80.8548 26.087C81.0762 26.0901 81.2911 26.0123 81.4593 25.8682C81.8747 25.5066 82.2458 25.097 82.5645 24.6478C82.9867 24.0914 84.0114 22.3644 85.6386 19.4669H85.9034C85.984 19.4669 86.03 19.4669 86.0358 19.4669C86.0358 19.5302 85.7537 20.1346 85.1838 21.2975C84.6139 22.4603 83.9461 23.6807 83.2726 24.8033C82.826 25.692 82.1478 26.4438 81.3096 26.9793C80.8461 27.1861 80.3434 27.2902 79.8359 27.2844C78.8701 27.2974 77.9348 26.9459 77.2166 26.3C76.5911 25.7512 75.9674 24.4464 75.3457 22.3855C75.173 22.7942 75.0061 23.2317 74.8564 23.6865C74.6818 24.2471 74.5774 24.8272 74.5456 25.4135C74.488 26.11 74.4534 26.536 74.4362 26.6972C74.4261 26.8212 74.3929 26.9423 74.3383 27.0541C74.29 27.127 74.2222 27.1849 74.1426 27.2211C73.8828 27.3519 73.5984 27.4264 73.3079 27.4398Z" fill="white"/>
<path d="M108.164 16.4148C108.09 16.0963 107.914 15.8109 107.661 15.6031C107.409 15.3954 107.095 15.2769 106.768 15.2663L104.149 15.1629C104.149 15.1629 97.4189 15.7889 94.3005 9.42011C92.7414 11.807 91.9407 14.6097 92.0034 17.46C92.0247 22.1046 93.8863 26.5513 97.1802 29.8259C100.474 33.1004 104.932 34.9357 109.576 34.9296C110.323 34.9311 111.07 34.8832 111.81 34.786L108.164 16.4148Z" fill="url(#paint0_linear_303_3342)"/>
<path d="M106.24 11.2463L117.082 11.3842C118.879 11.4243 120.667 11.6359 122.423 12.0159C123.286 12.1697 124.121 12.4543 124.898 12.8601C126.202 13.5492 126.655 14.8815 126.851 15.0768C125.277 7.12875 118.334 0.14552 109.904 0.00195037C107.118 -0.0396359 104.363 0.583053 101.867 1.81843C99.3698 3.0538 97.2034 4.86631 95.5468 7.10578C96.0866 8.13948 98.3148 11.0913 106.24 11.2463Z" fill="url(#paint1_linear_303_3342)"/>
<path d="M124.749 16.0416C123.747 15.4135 122.589 15.0792 121.407 15.0768C119.362 15.0768 114.998 15.0251 113.212 15.1572C113.123 15.1546 113.035 15.1725 112.955 15.2096C112.874 15.2466 112.803 15.3018 112.748 15.3707C112.692 15.4397 112.653 15.5206 112.634 15.6071C112.615 15.6935 112.616 15.7833 112.637 15.8693L115.899 33.7351C118.895 32.5731 121.513 30.6113 123.471 28.0636C125.428 25.5159 126.649 22.4798 127 19.2863C126.877 18.6165 126.613 17.9806 126.224 17.4211C125.836 16.8616 125.333 16.3913 124.749 16.0416Z" fill="url(#paint2_linear_303_3342)"/>
<path d="M108.21 32.3798C108.21 32.2764 108.25 32.1673 108.261 32.0582C108.293 31.8356 108.31 31.6111 108.313 31.3863C108.317 30.5522 108.181 29.7233 107.911 28.9341C107.655 28.3626 107.333 27.823 106.952 27.3261C107.323 27.8205 107.628 28.361 107.859 28.9341C108.084 29.7192 108.175 30.5365 108.129 31.3518C108.117 31.5697 108.09 31.7865 108.049 32.0008C108.049 32.1271 107.991 32.2535 107.963 32.3741C107.411 32.2005 106.95 31.8174 106.678 31.3072C106.407 30.7971 106.346 30.2006 106.51 29.6462C106.906 28.4115 107.084 27.7856 106.952 27.3491C106.808 27.1366 106.699 26.9988 106.699 26.9988L106.952 27.3319C106.915 27.1943 106.855 27.0641 106.774 26.9471C106.774 26.9471 109.708 28.7733 109.645 30.6168C109.585 31.0118 109.419 31.3835 109.167 31.6934C108.915 32.0034 108.584 32.2403 108.21 32.3798Z" fill="white"/>
<path d="M107.182 32.2879C107.124 32.1944 107.06 32.1043 106.992 32.018C106.853 31.8171 106.702 31.6253 106.538 31.4437C105.908 30.8081 105.179 30.2787 104.379 29.8759C103.727 29.6138 103.05 29.4213 102.358 29.3017C103.035 29.4123 103.697 29.6051 104.327 29.8759C105.089 30.3016 105.772 30.853 106.349 31.5069C106.497 31.6776 106.633 31.858 106.757 32.0467C106.831 32.1558 106.894 32.2707 106.958 32.3855C106.274 32.6669 104.396 32.799 103.684 31.3059C103.11 30.1171 102.788 29.5429 102.358 29.273L101.881 29.1753C101.881 29.1753 102.065 29.1753 102.34 29.2615C102.206 29.1797 102.058 29.1215 101.904 29.0892C101.904 29.0892 105.798 28.5149 107.107 29.9276C107.367 30.2628 107.514 30.6717 107.527 31.0957C107.541 31.5196 107.42 31.9369 107.182 32.2879Z" fill="white"/>
<path d="M105.844 28.3771L105.614 28.2277C105.455 28.1231 105.304 28.008 105.16 27.8832C104.638 27.4141 104.196 26.8633 103.851 26.2522C103.635 25.7694 103.479 25.2623 103.386 24.7419C103.488 25.2516 103.656 25.7458 103.885 26.212C104.252 26.7961 104.714 27.3144 105.252 27.7454C105.397 27.8591 105.549 27.9645 105.706 28.0612C105.796 28.1185 105.89 28.1702 105.987 28.2163C106.188 27.7724 106.206 27.2675 106.039 26.8101C105.871 26.3527 105.531 25.9792 105.091 25.7698C104.098 25.3219 103.615 25.0635 103.368 24.7419C103.322 24.5294 103.294 24.3858 103.294 24.3858C103.294 24.3858 103.294 24.5236 103.363 24.7304C103.295 24.631 103.247 24.52 103.219 24.4031C103.219 24.4031 102.714 27.2744 103.902 28.2737C104.187 28.464 104.517 28.5741 104.859 28.5922C105.2 28.6104 105.541 28.5361 105.844 28.3771Z" fill="white"/>
<defs>
<linearGradient id="paint0_linear_303_3342" x1="109.008" y1="16.1507" x2="94.9782" y2="30.0942" gradientUnits="userSpaceOnUse">
<stop stop-color="#B5D88B"/>
<stop offset="0.82" stop-color="#186D37"/>
</linearGradient>
<linearGradient id="paint1_linear_303_3342" x1="111.551" y1="-6.74318" x2="110.88" y2="26.8459" gradientUnits="userSpaceOnUse">
<stop offset="0.27" stop-color="#67C1ED"/>
<stop offset="0.7" stop-color="#30439B"/>
</linearGradient>
<linearGradient id="paint2_linear_303_3342" x1="3397.63" y1="1486.87" x2="3838.11" y2="2218.39" gradientUnits="userSpaceOnUse">
<stop stop-color="#B5D88B"/>
<stop offset="0.82" stop-color="#186D37"/>
</linearGradient>
</defs>
</svg>
